<!DOCTYPE svg PUBLIC "-//W3C//DTD SVG 20010904//EN" "http://www.w3.org/TR/2001/REC-SVG-20010904/DTD/svg10.dtd">
<svg version="1.0" xmlns="http://www.w3.org/2000/svg" width="31px" height="6px" viewBox="0 0 310 60" preserveAspectRatio="xMidYMid meet">
<g id="layer101" fill="#000000" stroke="none">
 <path d="M50 45 c-10 -12 -16 -13 -27 -4 -21 18 -28 1 -8 -21 16 -18 20 -19 35 -5 15 14 18 14 30 0 12 -14 15 -14 30 0 15 14 18 14 30 0 12 -14 15 -14 30 0 15 14 18 14 30 0 11 -14 15 -14 29 0 15 13 19 13 32 -1 14 -13 17 -12 34 6 19 21 13 42 -7 22 -9 -9 -16 -8 -28 3 -15 14 -19 14 -30 0 -12 -14 -15 -14 -30 0 -15 14 -18 14 -30 0 -12 -14 -15 -14 -30 0 -15 14 -18 14 -30 0 -12 -14 -15 -14 -30 0 -15 14 -18 14 -30 0z"/>
 </g>

</svg>